<svg width="30" height="20" viewBox="0 0 30 20" fill="none" xmlns="http://www.w3.org/2000/svg">
<path d="M23.7499 20H7.49989C3.59286 20.0023 0.338511 17.0048 0.0203484 13.1108C-0.297814 9.21671 2.4268 5.73069 6.28239 5.09877C8.05703 1.95238 11.3875 0.00440961 14.9999 -5.13214e-05C17.2524 -0.00856563 19.4404 0.751646 21.2024 2.15502C22.9325 3.52734 24.1625 5.43124 24.7024 7.57252C27.9323 8.06881 30.2346 10.9694 29.9849 14.2276C29.7352 17.4859 27.0177 20.0017 23.7499 20ZM14.9999 2.50001C12.2895 2.50321 9.79074 3.96514 8.45989 6.32627L7.87489 7.37502L6.68864 7.56877C4.1265 7.99802 2.31991 10.3179 2.53141 12.9071C2.74292 15.4964 4.90205 17.4923 7.49989 17.5H23.7499C25.7106 17.502 27.3419 15.9933 27.4927 14.0384C27.6434 12.0834 26.2627 10.3424 24.3249 10.0438L22.6799 9.79377L22.2774 8.17877C21.4465 4.83728 18.4431 2.49372 14.9999 2.50001ZM16.8124 15H13.1874V11.25H9.99989L14.9999 6.25002L19.9999 11.25H16.8124V15Z" fill="#0052CC"/>
</svg>
