<svg width="25" height="24" viewBox="0 0 25 24" fill="none" xmlns="http://www.w3.org/2000/svg">
<rect width="24" height="24" transform="translate(0.5)" fill="white" fill-opacity="0.01"/>
<path fill-rule="evenodd" clip-rule="evenodd" d="M13.2664 3.98282C13.5093 4.08349 13.7301 4.23105 13.916 4.41707L20.084 10.5841C20.2701 10.77 20.4178 10.9908 20.5186 11.2339C20.6194 11.4769 20.6712 11.7375 20.6712 12.0006C20.6712 12.2637 20.6194 12.5242 20.5186 12.7673C20.4178 13.0103 20.2701 13.2311 20.084 13.4171L13.916 19.5841C13.7301 19.7701 13.5093 19.9176 13.2664 20.0183C13.0234 20.119 12.763 20.1708 12.5 20.1708C12.237 20.1708 11.9766 20.119 11.7336 20.0183C11.4906 19.9176 11.2699 19.7701 11.084 19.5841L4.91598 13.4171C4.72982 13.2311 4.58213 13.0103 4.48136 12.7673C4.3806 12.5242 4.32874 12.2637 4.32874 12.0006C4.32874 11.7375 4.3806 11.4769 4.48136 11.2339C4.58213 10.9908 4.72982 10.77 4.91598 10.5841L11.084 4.41707C11.2699 4.23105 11.4906 4.08349 11.7336 3.98282C11.9766 3.88214 12.237 3.83032 12.5 3.83032C12.763 3.83032 13.0234 3.88214 13.2664 3.98282ZM11.7929 13.7072C11.9804 13.8947 12.2348 14.0001 12.5 14.0001C12.7652 14.0001 13.0195 13.8947 13.2071 13.7072C13.3946 13.5196 13.5 13.2653 13.5 13.0001V8.00006C13.5 7.73484 13.3946 7.48049 13.2071 7.29295C13.0195 7.10542 12.7652 7.00006 12.5 7.00006C12.2348 7.00006 11.9804 7.10542 11.7929 7.29295C11.6053 7.48049 11.5 7.73484 11.5 8.00006V13.0001C11.5 13.2653 11.6053 13.5196 11.7929 13.7072ZM11.7929 16.7072C11.9804 16.8947 12.2348 17.0001 12.5 17.0001C12.7652 17.0001 13.0195 16.8947 13.2071 16.7072C13.3946 16.5196 13.5 16.2653 13.5 16.0001C13.5 15.7348 13.3946 15.4805 13.2071 15.293C13.0195 15.1054 12.7652 15.0001 12.5 15.0001C12.2348 15.0001 11.9804 15.1054 11.7929 15.293C11.6053 15.4805 11.5 15.7348 11.5 16.0001C11.5 16.2653 11.6053 16.5196 11.7929 16.7072Z" fill="white"/>
</svg>
